<svg xmlns="http://www.w3.org/2000/svg" width="404.757" height="98.967" viewBox="0 0 404.757 98.967">
  <g id="Group_15590" data-name="Group 15590" transform="translate(-607.272 -557.547)">
    <g id="Group_15587" data-name="Group 15587" transform="translate(607.272 591.853)">
      <g id="Group_15584" data-name="Group 15584" transform="translate(0 24.041)">
        <path id="Path_61944" data-name="Path 61944" d="M610.841,621.111h-3.569v-1.157h8.378v1.157h-3.535v10.44h-1.273Z" transform="translate(-607.272 -619.518)" fill="#404040"/>
        <path id="Path_61945" data-name="Path 61945" d="M616.287,630.908a5.016,5.016,0,0,1-.8-3.141,5.694,5.694,0,0,1,.854-3.453,3.752,3.752,0,0,1,5.186-.158,4.445,4.445,0,0,1,.829,2.958l-.067.955h-5.529a4.667,4.667,0,0,0,.226,1.626,1.5,1.5,0,0,0,.771.846,3.591,3.591,0,0,0,1.517.26q.486,0,1.123-.025t1.156-.075l.487-.05.034.989a22.49,22.49,0,0,1-3.084.267A3.271,3.271,0,0,1,616.287,630.908Zm4.818-3.846a3.7,3.7,0,0,0-.487-2.17,1.865,1.865,0,0,0-1.591-.644,2.082,2.082,0,0,0-1.711.678,3.426,3.426,0,0,0-.569,2.136Z" transform="translate(-607.749 -619.706)" fill="#404040"/>
        <path id="Path_61946" data-name="Path 61946" d="M625.688,631.46a2.458,2.458,0,0,1-1.055-1.39,8.131,8.131,0,0,1-.319-2.521,6.491,6.491,0,0,1,.671-3.185,2.718,2.718,0,0,1,2.6-1.19q.5,0,1.038.051t1.459.218l-.051,1.023a19.134,19.134,0,0,0-2.028-.153,2.987,2.987,0,0,0-1.466.294,1.612,1.612,0,0,0-.721.989,7.242,7.242,0,0,0-.21,1.985,7,7,0,0,0,.2,1.9,1.623,1.623,0,0,0,.729.988,3.072,3.072,0,0,0,1.532.31l1.978-.151.051,1.038a18.259,18.259,0,0,1-2.414.235A3.855,3.855,0,0,1,625.688,631.46Z" transform="translate(-608.261 -619.705)" fill="#404040"/>
        <path id="Path_61947" data-name="Path 61947" d="M632.267,619.491h1.257v4.123a7.6,7.6,0,0,1,1.366-.486,5.456,5.456,0,0,1,1.282-.151,3.038,3.038,0,0,1,1.684.394,2.138,2.138,0,0,1,.837,1.281,9.694,9.694,0,0,1,.243,2.448v4.423h-1.256v-4.39a9.166,9.166,0,0,0-.142-1.869,1.4,1.4,0,0,0-.537-.9,2.071,2.071,0,0,0-1.164-.269,5.728,5.728,0,0,0-1.994.386l-.318.118v6.92h-1.257Z" transform="translate(-608.723 -619.491)" fill="#404040"/>
        <path id="Path_61948" data-name="Path 61948" d="M641.642,623.359h1.24v.587a6.236,6.236,0,0,1,1.383-.587,5.152,5.152,0,0,1,1.316-.167,2.913,2.913,0,0,1,1.659.4,2.192,2.192,0,0,1,.83,1.281,9.639,9.639,0,0,1,.242,2.44v4.423h-1.24v-4.39a8.888,8.888,0,0,0-.142-1.826,1.549,1.549,0,0,0-.512-.922,1.724,1.724,0,0,0-1.072-.285,4.985,4.985,0,0,0-1.165.144,4.614,4.614,0,0,0-.964.326l-.318.151v6.8h-1.256Z" transform="translate(-609.268 -619.706)" fill="#404040"/>
        <path id="Path_61949" data-name="Path 61949" d="M651.017,619.812h1.24v1.457h-1.24Zm0,3.35h1.24v8.38h-1.24Z" transform="translate(-609.812 -619.51)" fill="#404040"/>
        <path id="Path_61950" data-name="Path 61950" d="M655.611,631.46a2.463,2.463,0,0,1-1.056-1.39,8.137,8.137,0,0,1-.318-2.521,6.481,6.481,0,0,1,.671-3.185,2.717,2.717,0,0,1,2.6-1.19c.335,0,.681.017,1.039.051s.843.106,1.458.218l-.05,1.023a19.139,19.139,0,0,0-2.028-.153,2.992,2.992,0,0,0-1.467.294,1.616,1.616,0,0,0-.721.989,7.26,7.26,0,0,0-.209,1.985,6.989,6.989,0,0,0,.2,1.9,1.625,1.625,0,0,0,.728.988,3.079,3.079,0,0,0,1.534.31l1.978-.151.05,1.038a18.25,18.25,0,0,1-2.413.235A3.85,3.85,0,0,1,655.611,631.46Z" transform="translate(-609.999 -619.705)" fill="#404040"/>
        <path id="Path_61951" data-name="Path 61951" d="M662.223,631.253a2.673,2.673,0,0,1-.6-1.878,2.381,2.381,0,0,1,.611-1.793,3.25,3.25,0,0,1,1.953-.72l2.631-.252v-.721q0-1.592-1.374-1.592a30.67,30.67,0,0,0-3.3.218l-.05-.955a16.342,16.342,0,0,1,3.268-.368,2.329,2.329,0,0,1,2.715,2.7v4.29q.051.62.972.738l-.051.989a2.7,2.7,0,0,1-1.993-.67,7.308,7.308,0,0,1-3.017.67A2.282,2.282,0,0,1,662.223,631.253Zm4.207-.788.385-.135v-2.764l-2.48.234a1.612,1.612,0,0,0-1.089.436,1.538,1.538,0,0,0-.335,1.073q0,1.541,1.273,1.542A6.881,6.881,0,0,0,666.43,630.465Z" transform="translate(-610.427 -619.706)" fill="#404040"/>
        <path id="Path_61952" data-name="Path 61952" d="M671.031,619.491h1.257v12.032h-1.257Z" transform="translate(-610.974 -619.491)" fill="#404040"/>
        <path id="Path_61953" data-name="Path 61953" d="M678.626,631.253a2.674,2.674,0,0,1-.6-1.878,2.377,2.377,0,0,1,.612-1.793,3.244,3.244,0,0,1,1.952-.72l2.631-.252v-.721q0-1.592-1.374-1.592a30.683,30.683,0,0,0-3.3.218l-.05-.955a16.342,16.342,0,0,1,3.268-.368,2.836,2.836,0,0,1,2.069.645,2.808,2.808,0,0,1,.646,2.052v4.29q.05.62.972.738l-.051.989a2.711,2.711,0,0,1-2-.67,7.3,7.3,0,0,1-3.015.67A2.281,2.281,0,0,1,678.626,631.253Zm4.206-.788.385-.135v-2.764l-2.48.234a1.615,1.615,0,0,0-1.089.436,1.539,1.539,0,0,0-.335,1.073q0,1.541,1.274,1.542A6.876,6.876,0,0,0,682.831,630.465Z" transform="translate(-611.38 -619.706)" fill="#404040"/>
        <path id="Path_61954" data-name="Path 61954" d="M687.327,623.359h1.239v.587a6.255,6.255,0,0,1,1.383-.587,5.157,5.157,0,0,1,1.316-.167,2.914,2.914,0,0,1,1.66.4,2.187,2.187,0,0,1,.829,1.281,9.587,9.587,0,0,1,.243,2.44v4.423h-1.24v-4.39a8.879,8.879,0,0,0-.143-1.826,1.553,1.553,0,0,0-.51-.922,1.727,1.727,0,0,0-1.072-.285,4.985,4.985,0,0,0-1.165.144,4.576,4.576,0,0,0-.964.326l-.319.151v6.8h-1.256Z" transform="translate(-611.92 -619.706)" fill="#404040"/>
        <path id="Path_61955" data-name="Path 61955" d="M697,630.66a5.8,5.8,0,0,1-.687-3.174,5.639,5.639,0,0,1,.829-3.452,3.276,3.276,0,0,1,2.74-1.056,9.8,9.8,0,0,1,1.994.217v-3.7h1.241v12.032h-1.241v-.57a5.189,5.189,0,0,1-2.6.738A2.533,2.533,0,0,1,697,630.66Zm3.569-.234a5.53,5.53,0,0,0,.972-.328l.335-.15v-5.682a10.635,10.635,0,0,0-1.893-.2,2.082,2.082,0,0,0-1.852.77,4.646,4.646,0,0,0-.529,2.546,5.187,5.187,0,0,0,.428,2.406,1.548,1.548,0,0,0,1.484.779A4.363,4.363,0,0,0,700.567,630.426Z" transform="translate(-612.442 -619.491)" fill="#404040"/>
        <path id="Path_61956" data-name="Path 61956" d="M708.817,619.954h1.34l2.664,10.457h.939l2.665-10.457h1.34l-3.034,11.6H711.85Z" transform="translate(-613.168 -619.518)" fill="#404040"/>
        <path id="Path_61957" data-name="Path 61957" d="M720.343,631.461a2.467,2.467,0,0,1-1.122-1.382,9.392,9.392,0,0,1,.017-5.036,2.543,2.543,0,0,1,1.139-1.407,4.252,4.252,0,0,1,2.095-.445,4.171,4.171,0,0,1,2.1.453,2.59,2.59,0,0,1,1.132,1.407,9.353,9.353,0,0,1,.016,5.027,2.475,2.475,0,0,1-1.114,1.382,5.337,5.337,0,0,1-4.265,0Zm3.553-.955a1.643,1.643,0,0,0,.678-.989,7.347,7.347,0,0,0,.193-1.919,7.648,7.648,0,0,0-.2-2.01,1.65,1.65,0,0,0-.686-1.005,2.648,2.648,0,0,0-1.391-.3,2.694,2.694,0,0,0-1.4.3,1.674,1.674,0,0,0-.7,1.005,9.684,9.684,0,0,0-.017,3.922,1.636,1.636,0,0,0,.688,1,2.7,2.7,0,0,0,1.433.311A2.621,2.621,0,0,0,723.9,630.506Z" transform="translate(-613.752 -619.706)" fill="#404040"/>
        <path id="Path_61958" data-name="Path 61958" d="M729.493,631.46a2.455,2.455,0,0,1-1.056-1.39,8.137,8.137,0,0,1-.318-2.521,6.491,6.491,0,0,1,.67-3.185,2.718,2.718,0,0,1,2.6-1.19q.5,0,1.039.051t1.458.218l-.051,1.023a19.121,19.121,0,0,0-2.027-.153,2.991,2.991,0,0,0-1.466.294,1.616,1.616,0,0,0-.721.989,7.256,7.256,0,0,0-.209,1.985,7.037,7.037,0,0,0,.2,1.9,1.626,1.626,0,0,0,.729.988,3.076,3.076,0,0,0,1.533.31l1.977-.151.051,1.038a18.246,18.246,0,0,1-2.414.235A3.849,3.849,0,0,1,729.493,631.46Z" transform="translate(-614.288 -619.705)" fill="#404040"/>
        <path id="Path_61959" data-name="Path 61959" d="M736.1,631.253a2.673,2.673,0,0,1-.6-1.878,2.38,2.38,0,0,1,.611-1.793,3.249,3.249,0,0,1,1.952-.72l2.632-.252v-.721q0-1.592-1.374-1.592a30.672,30.672,0,0,0-3.3.218l-.05-.955a16.333,16.333,0,0,1,3.268-.368,2.839,2.839,0,0,1,2.069.645,2.808,2.808,0,0,1,.645,2.052v4.29q.051.62.972.738l-.05.989a2.705,2.705,0,0,1-1.994-.67,7.308,7.308,0,0,1-3.017.67A2.28,2.28,0,0,1,736.1,631.253Zm4.207-.788.385-.135v-2.764l-2.48.234a1.617,1.617,0,0,0-1.09.436,1.543,1.543,0,0,0-.334,1.073q0,1.541,1.273,1.542A6.882,6.882,0,0,0,740.311,630.465Z" transform="translate(-614.717 -619.706)" fill="#404040"/>
        <path id="Path_61960" data-name="Path 61960" d="M746.092,631.5a1.567,1.567,0,0,1-.688-.938,6.413,6.413,0,0,1-.209-1.852V624.3h-1.191v-1.091H745.2v-2.564h1.24v2.564H749.1V624.3h-2.665v4a10.722,10.722,0,0,0,.067,1.4.99.99,0,0,0,1.14.947l1.492-.1.083,1.039a12.893,12.893,0,0,1-1.793.185A2.67,2.67,0,0,1,746.092,631.5Z" transform="translate(-615.211 -619.558)" fill="#404040"/>
        <path id="Path_61961" data-name="Path 61961" d="M750.873,619.812h1.24v1.457h-1.24Zm0,3.35h1.24v8.38h-1.24Z" transform="translate(-615.61 -619.51)" fill="#404040"/>
        <path id="Path_61962" data-name="Path 61962" d="M755.532,631.461a2.469,2.469,0,0,1-1.123-1.382,9.418,9.418,0,0,1,.017-5.036,2.54,2.54,0,0,1,1.14-1.407,4.249,4.249,0,0,1,2.095-.445,4.173,4.173,0,0,1,2.1.453,2.593,2.593,0,0,1,1.132,1.407,9.374,9.374,0,0,1,.016,5.027,2.475,2.475,0,0,1-1.114,1.382,5.337,5.337,0,0,1-4.265,0Zm3.553-.955a1.643,1.643,0,0,0,.678-.989,7.347,7.347,0,0,0,.193-1.919,7.685,7.685,0,0,0-.2-2.01,1.651,1.651,0,0,0-.687-1.005,2.646,2.646,0,0,0-1.391-.3,2.692,2.692,0,0,0-1.4.3,1.67,1.67,0,0,0-.7,1.005,9.645,9.645,0,0,0-.017,3.922,1.632,1.632,0,0,0,.688,1,2.7,2.7,0,0,0,1.432.311A2.627,2.627,0,0,0,759.085,630.506Z" transform="translate(-615.795 -619.706)" fill="#404040"/>
        <path id="Path_61963" data-name="Path 61963" d="M763.681,623.359h1.24v.587a6.2,6.2,0,0,1,1.383-.587,5.145,5.145,0,0,1,1.315-.167,2.909,2.909,0,0,1,1.659.4,2.184,2.184,0,0,1,.83,1.281,9.593,9.593,0,0,1,.243,2.44v4.423H769.11v-4.39a8.889,8.889,0,0,0-.142-1.826,1.554,1.554,0,0,0-.51-.922,1.726,1.726,0,0,0-1.073-.285,4.977,4.977,0,0,0-1.164.144,4.6,4.6,0,0,0-.964.326l-.318.151v6.8h-1.257Z" transform="translate(-616.353 -619.706)" fill="#404040"/>
        <path id="Path_61964" data-name="Path 61964" d="M773.091,631.253a2.673,2.673,0,0,1-.6-1.878,2.381,2.381,0,0,1,.612-1.793,3.249,3.249,0,0,1,1.952-.72l2.632-.252v-.721q0-1.592-1.374-1.592a30.668,30.668,0,0,0-3.3.218l-.05-.955a16.328,16.328,0,0,1,3.268-.368,2.841,2.841,0,0,1,2.069.645,2.812,2.812,0,0,1,.645,2.052v4.29q.051.62.972.738l-.051.989a2.708,2.708,0,0,1-1.994-.67,7.3,7.3,0,0,1-3.016.67A2.282,2.282,0,0,1,773.091,631.253Zm4.206-.788.386-.135v-2.764l-2.481.234a1.617,1.617,0,0,0-1.089.436,1.543,1.543,0,0,0-.334,1.073q0,1.541,1.273,1.542A6.876,6.876,0,0,0,777.3,630.465Z" transform="translate(-616.864 -619.706)" fill="#404040"/>
        <path id="Path_61965" data-name="Path 61965" d="M781.9,619.491h1.257v12.032H781.9Z" transform="translate(-617.411 -619.491)" fill="#404040"/>
        <path id="Path_61966" data-name="Path 61966" d="M791.979,621.111H788.41v-1.157h8.378v1.157h-3.536v10.44h-1.273Z" transform="translate(-617.789 -619.518)" fill="#404040"/>
        <path id="Path_61967" data-name="Path 61967" d="M797.109,623.358h1.24v1.14a8.392,8.392,0,0,1,3.067-1.323v1.274a9.9,9.9,0,0,0-1.416.411,10.487,10.487,0,0,0-1.216.51l-.419.218v6.15h-1.256Z" transform="translate(-618.294 -619.705)" fill="#404040"/>
        <path id="Path_61968" data-name="Path 61968" d="M803.12,631.253a2.673,2.673,0,0,1-.6-1.878,2.384,2.384,0,0,1,.611-1.793,3.249,3.249,0,0,1,1.952-.72l2.632-.252v-.721q0-1.592-1.374-1.592a30.636,30.636,0,0,0-3.3.218l-.051-.955a16.335,16.335,0,0,1,3.268-.368,2.839,2.839,0,0,1,2.069.645,2.808,2.808,0,0,1,.645,2.052v4.29q.051.62.972.738l-.05.989a2.705,2.705,0,0,1-1.994-.67,7.308,7.308,0,0,1-3.017.67A2.282,2.282,0,0,1,803.12,631.253Zm4.207-.788.385-.135v-2.764l-2.48.234a1.619,1.619,0,0,0-1.09.436,1.543,1.543,0,0,0-.334,1.073q0,1.541,1.273,1.542A6.88,6.88,0,0,0,807.326,630.465Z" transform="translate(-618.608 -619.706)" fill="#404040"/>
        <path id="Path_61969" data-name="Path 61969" d="M811.821,619.812h1.24v1.457h-1.24Zm0,3.35h1.24v8.38h-1.24Z" transform="translate(-619.148 -619.51)" fill="#404040"/>
        <path id="Path_61970" data-name="Path 61970" d="M815.521,623.359h1.24v.587a6.223,6.223,0,0,1,1.383-.587,5.14,5.14,0,0,1,1.315-.167,2.909,2.909,0,0,1,1.659.4,2.184,2.184,0,0,1,.83,1.281,9.59,9.59,0,0,1,.243,2.44v4.423H820.95v-4.39a8.977,8.977,0,0,0-.141-1.826,1.55,1.55,0,0,0-.513-.922,1.725,1.725,0,0,0-1.072-.285,4.977,4.977,0,0,0-1.164.144,4.6,4.6,0,0,0-.964.326l-.318.151v6.8h-1.257Z" transform="translate(-619.363 -619.706)" fill="#404040"/>
        <path id="Path_61971" data-name="Path 61971" d="M824.9,619.812h1.24v1.457H824.9Zm0,3.35h1.24v8.38H824.9Z" transform="translate(-619.907 -619.51)" fill="#404040"/>
        <path id="Path_61972" data-name="Path 61972" d="M828.6,623.359h1.24v.587a6.236,6.236,0,0,1,1.383-.587,5.146,5.146,0,0,1,1.316-.167,2.913,2.913,0,0,1,1.659.4,2.192,2.192,0,0,1,.83,1.281,9.636,9.636,0,0,1,.242,2.44v4.423h-1.24v-4.39a8.954,8.954,0,0,0-.142-1.826,1.554,1.554,0,0,0-.511-.922,1.725,1.725,0,0,0-1.072-.285,4.986,4.986,0,0,0-1.165.144,4.615,4.615,0,0,0-.964.326l-.318.151v6.8H828.6Z" transform="translate(-620.122 -619.706)" fill="#404040"/>
        <path id="Path_61973" data-name="Path 61973" d="M838.36,635.115a2.146,2.146,0,0,1-.779-1.869,2.594,2.594,0,0,1,.125-.88,1.666,1.666,0,0,1,.394-.611,9.23,9.23,0,0,1,.8-.688.909.909,0,0,1-.352-.452,1.736,1.736,0,0,1-.117-.637,1.325,1.325,0,0,1,.1-.477,8.426,8.426,0,0,1,.469-.915,2.451,2.451,0,0,1-1.323-2.513,2.784,2.784,0,0,1,.787-2.171,3.456,3.456,0,0,1,2.379-.711,7.692,7.692,0,0,1,1.71.218l2.48-.067v1.073l-1.592-.034a1.747,1.747,0,0,1,.419.7,3.471,3.471,0,0,1,.133,1.047,2.618,2.618,0,0,1-.771,2.129,3.786,3.786,0,0,1-2.43.637,4.443,4.443,0,0,1-.854-.068c-.089.224-.162.419-.218.587a1.4,1.4,0,0,0-.084.436.546.546,0,0,0,.344.57,3.149,3.149,0,0,0,1.064.134h.654a7.783,7.783,0,0,1,1.785.167,1.758,1.758,0,0,1,1.047.68,2.511,2.511,0,0,1,.369,1.483,2.472,2.472,0,0,1-.905,2.128,5.113,5.113,0,0,1-2.982.671A4.706,4.706,0,0,1,838.36,635.115Zm4.717-.871a1.458,1.458,0,0,0,.553-1.3,1.476,1.476,0,0,0-.184-.813.976.976,0,0,0-.621-.377,5.888,5.888,0,0,0-1.257-.1l-1.81-.084a2.931,2.931,0,0,0-.746.7,1.477,1.477,0,0,0-.192.8,1.334,1.334,0,0,0,.51,1.207,3.491,3.491,0,0,0,1.8.335A3.635,3.635,0,0,0,843.077,634.244Zm-.771-6.779a1.922,1.922,0,0,0,.435-1.424,1.9,1.9,0,0,0-.435-1.407,2.042,2.042,0,0,0-1.442-.419,2.1,2.1,0,0,0-1.483.428,1.9,1.9,0,0,0-.444,1.416,1.872,1.872,0,0,0,.444,1.407,2.1,2.1,0,0,0,1.467.419A2.067,2.067,0,0,0,842.307,627.465Z" transform="translate(-620.644 -619.706)" fill="#404040"/>
        <path id="Path_61974" data-name="Path 61974" d="M852.1,631.046a3.343,3.343,0,0,1-1.307-1.936,16.246,16.246,0,0,1,0-6.729,3.394,3.394,0,0,1,1.283-1.944,4.572,4.572,0,0,1,2.672-.661,15.663,15.663,0,0,1,3.134.369l-.051,1.089a16.936,16.936,0,0,0-2.915-.3,3.455,3.455,0,0,0-1.978.468,2.425,2.425,0,0,0-.913,1.51,14.113,14.113,0,0,0-.243,3.015,12.3,12.3,0,0,0,.226,2.673,2.366,2.366,0,0,0,.93,1.458,3.729,3.729,0,0,0,2.128.494,15.353,15.353,0,0,0,2.766-.3l.051,1.1a15.433,15.433,0,0,1-3.05.352A4.768,4.768,0,0,1,852.1,631.046Z" transform="translate(-621.391 -619.508)" fill="#404040"/>
        <path id="Path_61975" data-name="Path 61975" d="M861.062,631.461a2.467,2.467,0,0,1-1.122-1.382,9.393,9.393,0,0,1,.017-5.036,2.543,2.543,0,0,1,1.139-1.407,4.252,4.252,0,0,1,2.095-.445,4.171,4.171,0,0,1,2.1.453,2.59,2.59,0,0,1,1.132,1.407,9.352,9.352,0,0,1,.016,5.027,2.475,2.475,0,0,1-1.114,1.382,5.337,5.337,0,0,1-4.265,0Zm3.553-.955a1.643,1.643,0,0,0,.678-.989,7.344,7.344,0,0,0,.193-1.919,7.648,7.648,0,0,0-.2-2.01,1.653,1.653,0,0,0-.686-1.005,2.649,2.649,0,0,0-1.391-.3,2.694,2.694,0,0,0-1.4.3,1.67,1.67,0,0,0-.7,1.005,9.688,9.688,0,0,0-.017,3.922,1.636,1.636,0,0,0,.688,1,2.7,2.7,0,0,0,1.433.311A2.623,2.623,0,0,0,864.615,630.506Z" transform="translate(-621.923 -619.706)" fill="#404040"/>
        <path id="Path_61976" data-name="Path 61976" d="M869.212,623.358h1.24v1.14a8.391,8.391,0,0,1,3.067-1.323v1.274a9.946,9.946,0,0,0-1.417.411,10.523,10.523,0,0,0-1.215.51l-.418.218v6.15h-1.256Z" transform="translate(-622.48 -619.705)" fill="#404040"/>
        <path id="Path_61977" data-name="Path 61977" d="M875.189,623.359h1.24v.6a6.227,6.227,0,0,1,1.266-.578,4.332,4.332,0,0,1,1.3-.192,2.563,2.563,0,0,1,2.271,1.03,5.874,5.874,0,0,1,.713,3.276,7.319,7.319,0,0,1-.369,2.555,2.592,2.592,0,0,1-1.173,1.407,4.487,4.487,0,0,1-2.162.445,8.933,8.933,0,0,1-1.827-.185v3.738h-1.256Zm4.96,6.688a4.373,4.373,0,0,0,.553-2.5,4.842,4.842,0,0,0-.478-2.473,1.594,1.594,0,0,0-1.45-.763,3.8,3.8,0,0,0-1.047.161,6.577,6.577,0,0,0-.964.343l-.319.168v5.647a13.816,13.816,0,0,0,1.844.185A2.135,2.135,0,0,0,880.149,630.046Z" transform="translate(-622.827 -619.706)" fill="#404040"/>
        <path id="Path_61978" data-name="Path 61978" d="M885.453,631.461a2.469,2.469,0,0,1-1.123-1.382,9.392,9.392,0,0,1,.017-5.036,2.543,2.543,0,0,1,1.139-1.407,4.253,4.253,0,0,1,2.1-.445,4.176,4.176,0,0,1,2.1.453,2.588,2.588,0,0,1,1.131,1.407,9.364,9.364,0,0,1,.017,5.027,2.479,2.479,0,0,1-1.114,1.382,5.337,5.337,0,0,1-4.265,0Zm3.553-.955a1.643,1.643,0,0,0,.678-.989,7.387,7.387,0,0,0,.193-1.919,7.681,7.681,0,0,0-.2-2.01,1.65,1.65,0,0,0-.687-1.005,2.648,2.648,0,0,0-1.391-.3,2.69,2.69,0,0,0-1.4.3,1.675,1.675,0,0,0-.7,1.005,9.691,9.691,0,0,0-.017,3.922,1.637,1.637,0,0,0,.689,1,2.7,2.7,0,0,0,1.432.311A2.627,2.627,0,0,0,889.006,630.506Z" transform="translate(-623.339 -619.706)" fill="#404040"/>
        <path id="Path_61979" data-name="Path 61979" d="M893.6,623.358h1.24v1.14a8.4,8.4,0,0,1,3.067-1.323v1.274a9.9,9.9,0,0,0-1.416.411,10.488,10.488,0,0,0-1.216.51l-.418.218v6.15H893.6Z" transform="translate(-623.896 -619.705)" fill="#404040"/>
        <path id="Path_61980" data-name="Path 61980" d="M899.614,631.253a2.673,2.673,0,0,1-.6-1.878,2.38,2.38,0,0,1,.611-1.793,3.244,3.244,0,0,1,1.952-.72l2.631-.252v-.721q0-1.592-1.374-1.592a30.651,30.651,0,0,0-3.3.218l-.051-.955a16.351,16.351,0,0,1,3.269-.368,2.329,2.329,0,0,1,2.715,2.7v4.29q.049.62.972.738l-.051.989a2.707,2.707,0,0,1-1.994-.67,7.3,7.3,0,0,1-3.016.67A2.281,2.281,0,0,1,899.614,631.253Zm4.206-.788.385-.135v-2.764l-2.479.234a1.615,1.615,0,0,0-1.09.436,1.543,1.543,0,0,0-.335,1.073q0,1.541,1.273,1.542A6.873,6.873,0,0,0,903.82,630.465Z" transform="translate(-624.21 -619.706)" fill="#404040"/>
        <path id="Path_61981" data-name="Path 61981" d="M909.6,631.5a1.575,1.575,0,0,1-.688-.938,6.415,6.415,0,0,1-.209-1.852V624.3h-1.19v-1.091h1.19v-2.564h1.24v2.564h2.665V624.3h-2.665v4a10.72,10.72,0,0,0,.067,1.4.99.99,0,0,0,1.14.947l1.492-.1.083,1.039a12.891,12.891,0,0,1-1.792.185A2.669,2.669,0,0,1,909.6,631.5Z" transform="translate(-624.704 -619.558)" fill="#404040"/>
        <path id="Path_61982" data-name="Path 61982" d="M914.381,619.812h1.24v1.457h-1.24Zm0,3.35h1.24v8.38h-1.24Z" transform="translate(-625.103 -619.51)" fill="#404040"/>
        <path id="Path_61983" data-name="Path 61983" d="M919.041,631.461a2.47,2.47,0,0,1-1.124-1.382,9.418,9.418,0,0,1,.017-5.036,2.545,2.545,0,0,1,1.14-1.407,4.25,4.25,0,0,1,2.095-.445,4.177,4.177,0,0,1,2.1.453,2.591,2.591,0,0,1,1.131,1.407,9.373,9.373,0,0,1,.016,5.027,2.475,2.475,0,0,1-1.114,1.382,5.335,5.335,0,0,1-4.264,0Zm3.552-.955a1.648,1.648,0,0,0,.679-.989,7.391,7.391,0,0,0,.192-1.919,7.735,7.735,0,0,0-.2-2.01,1.655,1.655,0,0,0-.688-1.005,2.646,2.646,0,0,0-1.391-.3,2.692,2.692,0,0,0-1.4.3,1.67,1.67,0,0,0-.7,1.005,9.645,9.645,0,0,0-.017,3.922,1.639,1.639,0,0,0,.688,1,2.706,2.706,0,0,0,1.432.311A2.627,2.627,0,0,0,922.593,630.506Z" transform="translate(-625.289 -619.706)" fill="#404040"/>
        <path id="Path_61984" data-name="Path 61984" d="M927.189,623.359h1.24v.587a6.223,6.223,0,0,1,1.383-.587,5.153,5.153,0,0,1,1.316-.167,2.908,2.908,0,0,1,1.658.4,2.184,2.184,0,0,1,.83,1.281,9.581,9.581,0,0,1,.244,2.44v4.423h-1.241v-4.39a8.9,8.9,0,0,0-.142-1.826,1.549,1.549,0,0,0-.511-.922,1.726,1.726,0,0,0-1.073-.285,4.977,4.977,0,0,0-1.164.144,4.614,4.614,0,0,0-.964.326l-.318.151v6.8h-1.257Z" transform="translate(-625.846 -619.706)" fill="#404040"/>
      </g>
      <g id="Group_15586" data-name="Group 15586">
        <g id="Group_15585" data-name="Group 15585">
          <path id="Path_61985" data-name="Path 61985" d="M622.622,608.8H620.5v.087a4.414,4.414,0,0,1-1.01,3.091,3.7,3.7,0,0,1-2.875,1.1h-4.627a5.869,5.869,0,0,1-2.323-.458,4.144,4.144,0,0,1-1.735-1.328,3.282,3.282,0,0,1-.657-2.03,26.214,26.214,0,0,1,.449-3.694l1.536.242a27.978,27.978,0,0,0-.346,3.142,2.454,2.454,0,0,0,.4,1.381,2.683,2.683,0,0,0,1.079.941,3.361,3.361,0,0,0,1.511.337h4.611a2.168,2.168,0,0,0,1.745-.691,2.869,2.869,0,0,0,.586-1.916V608.8h-.311a5.855,5.855,0,0,1-1.209-.12,3.138,3.138,0,0,1-1.088-.466l.691-1.244a1.719,1.719,0,0,0,.708.3,6.707,6.707,0,0,0,1.036.06h3.954Zm-10.584,5.526H613.5v1.657h-1.467Zm2.314,0h1.45v1.657h-1.45Z" transform="translate(-607.272 -594.642)" fill="#313133"/>
          <path id="Path_61986" data-name="Path 61986" d="M630.761,606.8v1.468h-7.3V606.8h2.573v-7.165h1.64V606.8Zm-4.7-10.463h1.572v1.693h-1.572Z" transform="translate(-608.212 -594.105)" fill="#313133"/>
          <path id="Path_61987" data-name="Path 61987" d="M645.2,606.942v1.469H631.211v-1.469h1.934v-1.07a3.136,3.136,0,0,1,.441-1.614,3.359,3.359,0,0,1,1.183-1.2,3.1,3.1,0,0,1,1.64-.449,3.152,3.152,0,0,1,1.64.441,3.27,3.27,0,0,1,1.606,2.823v1.07h2.262v-2.158a4.145,4.145,0,0,0-1.286-3.479,4.977,4.977,0,0,0-3.134-.994,23.724,23.724,0,0,0-3.765.466l-.121-1.277a16.7,16.7,0,0,1,4.213-.656,6.7,6.7,0,0,1,2.944.621,4.622,4.622,0,0,1,2.037,1.952,6.735,6.735,0,0,1,.752,3.35v2.175Zm-9.946-2.365a1.654,1.654,0,0,0-.465,1.193v1.173h3.246V605.75a1.629,1.629,0,0,0-.466-1.174,1.627,1.627,0,0,0-2.314,0Z" transform="translate(-608.662 -594.251)" fill="#313133"/>
          <path id="Path_61988" data-name="Path 61988" d="M660.928,606.989v1.468h-.674a1.33,1.33,0,0,1-.657-.2,2,2,0,0,1-.587-.51v.708H646.059v-1.468H651.5a16.5,16.5,0,0,1-.242-2.78,15.936,15.936,0,0,1,.155-2.2,17.545,17.545,0,0,1,.346-1.856,7.034,7.034,0,0,1,1.287-.345,9.506,9.506,0,0,1,1.77-.156,4.219,4.219,0,0,1,3.22,1.053,4.968,4.968,0,0,1,.976,3.436v2.141a1.533,1.533,0,0,0,.51.51,1.357,1.357,0,0,0,.734.2Zm-7.969-1.235c.052.513.107.924.164,1.235h4.247v-2.883a3.254,3.254,0,0,0-.664-2.287,2.8,2.8,0,0,0-2.116-.7,6.737,6.737,0,0,0-1.45.156,18.252,18.252,0,0,0-.259,2.935A15.341,15.341,0,0,0,652.959,605.754Z" transform="translate(-609.524 -594.298)" fill="#313133"/>
          <path id="Path_61989" data-name="Path 61989" d="M665.608,595.948v12.294h-3.765v-1.468h2.124V595.948Z" transform="translate(-610.44 -594.083)" fill="#313133"/>
          <path id="Path_61990" data-name="Path 61990" d="M669.029,595.948h1.641v12.294h-1.641Z" transform="translate(-610.858 -594.083)" fill="#313133"/>
          <path id="Path_61991" data-name="Path 61991" d="M678.757,599.6q1.027.113,1.683.25v7.39a9.69,9.69,0,0,1-.682,4.049,2.555,2.555,0,0,1-2.547,1.441,24.182,24.182,0,0,1-2.728-.276v-1.468a17.515,17.515,0,0,0,2.607.277,1.909,1.909,0,0,0,.949-.207,1.352,1.352,0,0,0,.552-.82,6.372,6.372,0,0,0,.19-1.787h-2.365a2.672,2.672,0,0,1-2.633-1.226,6.6,6.6,0,0,1-.63-3.039,8.8,8.8,0,0,1,.371-2.728,2.655,2.655,0,0,1,1.174-1.494,4.465,4.465,0,0,1,2.236-.475A17.1,17.1,0,0,1,678.757,599.6Zm-3.548,6.578a1.772,1.772,0,0,0,1.744.8H678.8v-5.9a10.676,10.676,0,0,0-1.5-.122,2.271,2.271,0,0,0-1.943.734,4.279,4.279,0,0,0-.561,2.443A4.439,4.439,0,0,0,675.208,606.177Z" transform="translate(-611.097 -594.288)" fill="#313133"/>
          <path id="Path_61992" data-name="Path 61992" d="M702.049,608.8h-2.123v.087a4.415,4.415,0,0,1-1.011,3.091,3.7,3.7,0,0,1-2.875,1.1h-4.627a5.872,5.872,0,0,1-2.323-.458,4.144,4.144,0,0,1-1.735-1.328,3.288,3.288,0,0,1-.655-2.03,26.29,26.29,0,0,1,.448-3.694l1.536.242a28.2,28.2,0,0,0-.346,3.142,2.46,2.46,0,0,0,.4,1.381,2.692,2.692,0,0,0,1.079.941,3.36,3.36,0,0,0,1.511.337h4.61a2.165,2.165,0,0,0,1.744-.691,2.868,2.868,0,0,0,.587-1.916V608.8h-.311a5.847,5.847,0,0,1-1.208-.12,3.138,3.138,0,0,1-1.088-.466l.69-1.244a1.717,1.717,0,0,0,.708.3,6.7,6.7,0,0,0,1.035.06h3.954Zm-10.584,5.526h1.468v1.657h-1.468Zm2.313,0h1.451v1.657h-1.451Z" transform="translate(-611.884 -594.642)" fill="#313133"/>
          <path id="Path_61993" data-name="Path 61993" d="M709.671,606.8v1.468h-6.786V606.8h2.572v-7.165H707.1V606.8Zm-4.178-10.463h1.57v1.693h-1.57Z" transform="translate(-612.823 -594.105)" fill="#313133"/>
          <path id="Path_61994" data-name="Path 61994" d="M720.812,606.8v1.468H710.089V606.8h2.246a7.6,7.6,0,0,1-.4-2.762,6.79,6.79,0,0,1,.414-2.651,2.507,2.507,0,0,1,1.322-1.338,6.467,6.467,0,0,1,2.529-.4,22.252,22.252,0,0,1,2.434.122l.6.069V606.8Zm-7.08-.941a3.19,3.19,0,0,0,.4.941h3.47v-5.645q-1.071-.086-1.5-.087a3.329,3.329,0,0,0-1.571.294,1.56,1.56,0,0,0-.742.948,6.416,6.416,0,0,0-.207,1.848A6.989,6.989,0,0,0,713.732,605.856Zm.121-9.505h1.468v1.676h-1.468Zm2.313,0h1.451v1.676h-1.451Z" transform="translate(-613.242 -594.106)" fill="#313133"/>
          <path id="Path_61995" data-name="Path 61995" d="M728.258,606.8v1.468h-6.786V606.8h2.573v-7.165h1.64V606.8Zm-5.283-10.446h1.468v1.676h-1.468Zm2.314,0h1.45v1.676h-1.45Z" transform="translate(-613.902 -594.106)" fill="#313133"/>
          <path id="Path_61996" data-name="Path 61996" d="M732.44,595.948v12.294h-3.764v-1.468H730.8V595.948Z" transform="translate(-614.321 -594.083)" fill="#313133"/>
          <path id="Path_61997" data-name="Path 61997" d="M735.862,595.948h1.64v12.294h-1.64Z" transform="translate(-614.738 -594.083)" fill="#313133"/>
          <path id="Path_61998" data-name="Path 61998" d="M758.174,607v1.468h-9.29a10.653,10.653,0,0,1-2.589-.259,2.7,2.7,0,0,1-1.511-.907,2.853,2.853,0,0,1-.509-1.8,11.906,11.906,0,0,1,.164-1.778c.109-.7.233-1.37.371-2l1.294.069-.155,1.277a16.959,16.959,0,0,0-.207,2.055,1.6,1.6,0,0,0,.665,1.441,4.626,4.626,0,0,0,2.393.44H754v-7.165h1.641V607Zm-8.686,2.849h1.572v1.693h-1.572Z" transform="translate(-615.226 -594.309)" fill="#313133"/>
          <path id="Path_61999" data-name="Path 61999" d="M763.243,599.834v8.634h-4.212V607H761.6v-7.165Zm-2.71,10.015H762v1.658h-1.468Zm2.313,0H764.3v1.658h-1.451Z" transform="translate(-616.083 -594.309)" fill="#313133"/>
          <path id="Path_62000" data-name="Path 62000" d="M766.062,612.716l-.414-.035v-1.45c.381.034.691.052.933.052a1.306,1.306,0,0,0,1.175-.622,3.242,3.242,0,0,0,.4-1.743v-9.066h1.624v8.72a5.7,5.7,0,0,1-.708,3.117,2.389,2.389,0,0,1-2.142,1.079A8,8,0,0,1,766.062,612.716Z" transform="translate(-616.467 -594.31)" fill="#313133"/>
          <path id="Path_62001" data-name="Path 62001" d="M780.918,606.976v1.469h-8.909v-1.469H777.6v-1.587a5.009,5.009,0,0,0-.951-3.463,2.963,2.963,0,0,0-2.227-1.011h-1.5l-.122-1.225a5.639,5.639,0,0,1,.846-.173,7.784,7.784,0,0,1,1.1-.086,4.346,4.346,0,0,1,2.253.6,4.131,4.131,0,0,1,1.615,1.908,8.1,8.1,0,0,1,.6,3.367v1.674Z" transform="translate(-616.837 -594.285)" fill="#313133"/>
          <path id="Path_62002" data-name="Path 62002" d="M788.253,606.8v1.468h-6.786V606.8h2.572v-7.165h1.641V606.8Zm-5.283-10.446h1.467v1.676h-1.467Zm2.314,0h1.451v1.676h-1.451Z" transform="translate(-617.386 -594.106)" fill="#313133"/>
          <path id="Path_62003" data-name="Path 62003" d="M794.507,606.774v1.468h-5.836v-1.468H790.8V595.948h1.64v10.826Z" transform="translate(-617.804 -594.083)" fill="#313133"/>
          <path id="Path_62004" data-name="Path 62004" d="M798.631,595.948v12.294h-3.764v-1.468h2.124V595.948Z" transform="translate(-618.164 -594.083)" fill="#313133"/>
          <path id="Path_62005" data-name="Path 62005" d="M815.324,606.8v1.468h-5.853a6.188,6.188,0,0,1-2.5-.414,2.569,2.569,0,0,1-1.33-1.365,6.723,6.723,0,0,1-.414-2.624,6.936,6.936,0,0,1,.4-2.6,2.537,2.537,0,0,1,1.3-1.382,5.9,5.9,0,0,1,2.469-.423q.759,0,2.089.069t1.934.138v7.13Zm-8.194-1.192a1.683,1.683,0,0,0,.872.916,4.064,4.064,0,0,0,1.658.276h2.124v-5.749q-1.382-.1-2.193-.1a3.79,3.79,0,0,0-1.615.284,1.683,1.683,0,0,0-.854.916,4.573,4.573,0,0,0-.259,1.7A4.684,4.684,0,0,0,807.13,605.606Zm.769-9.255h1.469v1.676H807.9Zm2.314,0h1.451v1.676h-1.451Z" transform="translate(-618.765 -594.106)" fill="#313133"/>
          <path id="Path_62006" data-name="Path 62006" d="M825.279,600.7a4.968,4.968,0,0,1,.976,3.436v4.317H815.947v-1.468h2.8a16.486,16.486,0,0,1-.241-2.78,15.936,15.936,0,0,1,.155-2.2,17.54,17.54,0,0,1,.345-1.856,7.03,7.03,0,0,1,1.287-.345,9.506,9.506,0,0,1,1.77-.156A4.221,4.221,0,0,1,825.279,600.7Zm-5.076,5.05c.052.513.106.924.165,1.235h4.247v-2.883a3.253,3.253,0,0,0-.665-2.287,2.8,2.8,0,0,0-2.115-.7,6.738,6.738,0,0,0-1.45.156,18.363,18.363,0,0,0-.259,2.935A15.323,15.323,0,0,0,820.2,605.754Z" transform="translate(-619.388 -594.298)" fill="#313133"/>
          <path id="Path_62007" data-name="Path 62007" d="M832.792,606.774v1.468h-3.28V595.948h1.64v10.826Z" transform="translate(-620.175 -594.083)" fill="#313133"/>
          <path id="Path_62008" data-name="Path 62008" d="M843.855,606.988v1.468H841.9a7.612,7.612,0,0,1-1.735-.207,8.47,8.47,0,0,1-1.666-.57,7.727,7.727,0,0,1-1.623.57,7.442,7.442,0,0,1-1.71.207h-2.176v-1.468h2.124a5.433,5.433,0,0,0,1.813-.328,8.493,8.493,0,0,1-2.011-2.235,4.747,4.747,0,0,1-.787-2.253l-.052-1.313a10.635,10.635,0,0,1,2.167-.9,8,8,0,0,1,2.235-.329,8.189,8.189,0,0,1,2.254.329,10.918,10.918,0,0,1,2.2.9l-.069,1.313a4.746,4.746,0,0,1-.786,2.253,8.389,8.389,0,0,1-2.028,2.235,5.573,5.573,0,0,0,1.829.328ZM836.474,604a6.477,6.477,0,0,0,2.029,1.934,6.731,6.731,0,0,0,2.054-1.942,4.1,4.1,0,0,0,.743-2.3,8.458,8.458,0,0,0-2.8-.57,8.268,8.268,0,0,0-2.763.57A4.168,4.168,0,0,0,836.474,604Z" transform="translate(-620.377 -594.297)" fill="#313133"/>
          <path id="Path_62009" data-name="Path 62009" d="M848.289,595.948v12.294h-3.765v-1.468h2.124V595.948Z" transform="translate(-621.047 -594.083)" fill="#313133"/>
          <path id="Path_62010" data-name="Path 62010" d="M851.71,595.948h1.64v12.294h-1.64Z" transform="translate(-621.464 -594.083)" fill="#313133"/>
          <path id="Path_62011" data-name="Path 62011" d="M869.967,606.8v1.468h-5.853a6.188,6.188,0,0,1-2.5-.414,2.569,2.569,0,0,1-1.33-1.365,6.725,6.725,0,0,1-.414-2.624,6.935,6.935,0,0,1,.4-2.6,2.537,2.537,0,0,1,1.3-1.382,5.9,5.9,0,0,1,2.469-.423q.759,0,2.089.069t1.934.138v7.13Zm-8.194-1.192a1.683,1.683,0,0,0,.872.916,4.064,4.064,0,0,0,1.658.276h2.124v-5.749q-1.382-.1-2.193-.1a3.79,3.79,0,0,0-1.615.284,1.683,1.683,0,0,0-.854.916,4.573,4.573,0,0,0-.259,1.7A4.681,4.681,0,0,0,861.773,605.606Zm.769-9.255h1.469v1.676h-1.469Zm2.314,0h1.451v1.676h-1.451Z" transform="translate(-621.938 -594.106)" fill="#313133"/>
          <path id="Path_62012" data-name="Path 62012" d="M885.422,607v1.468h-4.9a2.95,2.95,0,0,1-1.916-.69,2.181,2.181,0,0,1-1.676.69H870.59V607h2.745v-6.3h1.641V607h1.416a1.184,1.184,0,0,0,1.113-.639,3.283,3.283,0,0,0,.354-1.605V600.7h1.64v4.04a6.349,6.349,0,0,1-.224,1.761,2.8,2.8,0,0,0,.587.345,1.671,1.671,0,0,0,.691.155h1.657v-3.332q0-1.208-.276-3.782l1.382-.052q.206,1.019.37,2.132a12.724,12.724,0,0,1,.165,1.7V607Z" transform="translate(-622.56 -594.309)" fill="#313133"/>
          <path id="Path_62013" data-name="Path 62013" d="M899.432,601.966a12.551,12.551,0,0,1,.165,1.7v4.8h-3.332a2.95,2.95,0,0,1-1.917-.69,2.179,2.179,0,0,1-1.675.69h-6.337V607h2.746v-6.3h1.64V607h1.416a1.182,1.182,0,0,0,1.113-.639,3.272,3.272,0,0,0,.354-1.605V600.7h1.641v4.04a6.35,6.35,0,0,1-.225,1.761,2.777,2.777,0,0,0,.588.345,1.668,1.668,0,0,0,.691.155h1.658v-3.332q0-1.208-.277-3.782l1.382-.052Q899.269,600.853,899.432,601.966Z" transform="translate(-623.475 -594.309)" fill="#313133"/>
          <path id="Path_62014" data-name="Path 62014" d="M911.785,608.127h-2.159a6.6,6.6,0,0,1-.836,3.158,2.582,2.582,0,0,1-2.358,1.123,24.2,24.2,0,0,1-2.728-.276v-1.468a17.51,17.51,0,0,0,2.608.277,1.906,1.906,0,0,0,.948-.207,1.348,1.348,0,0,0,.553-.821,6.409,6.409,0,0,0,.19-1.787h-2.365a2.673,2.673,0,0,1-2.634-1.226,6.6,6.6,0,0,1-.63-3.039,8.822,8.822,0,0,1,.371-2.728,2.656,2.656,0,0,1,1.174-1.494,4.472,4.472,0,0,1,2.237-.475,17.1,17.1,0,0,1,1.821.112q1.029.113,1.684.251v7.13h2.123Zm-7.356-2.271a1.774,1.774,0,0,0,1.745.8h1.847v-5.9a10.681,10.681,0,0,0-1.5-.121,2.271,2.271,0,0,0-1.943.734,4.272,4.272,0,0,0-.561,2.443A4.452,4.452,0,0,0,904.429,605.856Zm3.851-8.849-3.609.707-.172-.622.829-.224a1.546,1.546,0,0,1-.467-.578,1.654,1.654,0,0,1-.154-.7,1.584,1.584,0,0,1,.466-1.139,1.6,1.6,0,0,1,1.208-.484,2.273,2.273,0,0,1,1.278.415l-.19.777a1.2,1.2,0,0,0-.311-.173,1.154,1.154,0,0,0-.448-.086.959.959,0,0,0-.984.966.954.954,0,0,0,.414.795l1.934-.518Z" transform="translate(-624.406 -593.968)" fill="#313133"/>
          <path id="Path_62015" data-name="Path 62015" d="M924.589,606.989v1.468h-.673a1.33,1.33,0,0,1-.657-.2,1.993,1.993,0,0,1-.586-.51v.708H912.365v-1.468h2.8a16.507,16.507,0,0,1-.242-2.78,15.936,15.936,0,0,1,.155-2.2,17.267,17.267,0,0,1,.346-1.856,7.03,7.03,0,0,1,1.287-.345,9.487,9.487,0,0,1,1.769-.156A4.222,4.222,0,0,1,921.7,600.7a4.973,4.973,0,0,1,.976,3.436v2.141a1.526,1.526,0,0,0,.509.51,1.352,1.352,0,0,0,.733.2Zm-7.968-1.235c.051.513.105.924.163,1.235h4.248v-2.883a3.25,3.25,0,0,0-.665-2.287,2.8,2.8,0,0,0-2.115-.7,6.747,6.747,0,0,0-1.451.156,18.258,18.258,0,0,0-.259,2.935A15.341,15.341,0,0,0,916.622,605.754Z" transform="translate(-624.986 -594.298)" fill="#313133"/>
          <path id="Path_62016" data-name="Path 62016" d="M929.107,595.948v12.294h-3.764v-1.468h2.123V595.948Z" transform="translate(-625.739 -594.083)" fill="#313133"/>
          <path id="Path_62017" data-name="Path 62017" d="M932.529,595.948h1.641v12.294h-1.641Z" transform="translate(-626.157 -594.083)" fill="#313133"/>
        </g>
      </g>
    </g>
    <g id="Group_15589" data-name="Group 15589" transform="translate(927.709 557.547)">
      <g id="Group_15588" data-name="Group 15588" transform="translate(1.712)">
        <path id="Path_62018" data-name="Path 62018" d="M1010.677,560.347h-.007a2.729,2.729,0,0,0-4.726-1.931l0-.006-7.7,9.256,2.764,9.595,8.692-4.914Z" transform="translate(-952.12 -557.547)" fill="#a3d09d"/>
        <path id="Path_62019" data-name="Path 62019" d="M1032.916,585.529l-.006,0a2.73,2.73,0,0,0-1.976-4.708v-.007l-11.991,1.1-4.83,8.738,9.621,2.671Z" transform="translate(-953.042 -558.897)" fill="#3b7d98"/>
        <path id="Path_62020" data-name="Path 62020" d="M1031.145,618.945v-.007a2.73,2.73,0,0,0,1.931-4.727l0,0-9.255-7.7-9.595,2.764,4.914,8.692Z" transform="translate(-953.049 -560.389)" fill="#25afa5"/>
        <path id="Path_62021" data-name="Path 62021" d="M1006.468,641.184l0,0a2.729,2.729,0,0,0,4.707-1.976h.008l-1.1-11.991-8.738-4.83-1.678,10.791Z" transform="translate(-952.204 -561.311)" fill="#126c66"/>
        <path id="Path_62022" data-name="Path 62022" d="M977.567,641.184l0,0a2.73,2.73,0,0,1-4.708-1.976h-.007l1.1-11.991,8.738-4.83,1.679,10.791Z" transform="translate(-950.646 -561.311)" fill="#25afa5"/>
        <path id="Path_62023" data-name="Path 62023" d="M950.312,614.676l0,0a2.73,2.73,0,0,0,1.976,4.708v.008l11.991-1.1,4.83-8.738-9.621-2.672Z" transform="translate(-949.288 -560.411)" fill="#a3d09d"/>
        <path id="Path_62024" data-name="Path 62024" d="M952.078,581.263v.008A2.729,2.729,0,0,0,950.147,586l0,0,9.255,7.7,9.595-2.764-4.913-8.691Z" transform="translate(-949.278 -558.923)" fill="#00b1c2"/>
        <path id="Path_62025" data-name="Path 62025" d="M977.26,558.58l0,.006a2.729,2.729,0,0,0-4.707,1.976h-.008l1.1,11.99,8.738,4.83,2.671-9.62Z" transform="translate(-950.628 -557.557)" fill="#25afa5"/>
      </g>
      <path id="Path_62026" data-name="Path 62026" d="M1017.94,573.4a.682.682,0,0,0-.863-.077l-16.671,9.78-2.8,4.9c.3.142.609.277.9.443l3.752-2.546a1.029,1.029,0,0,1,1.364.08l1.742,1.743a1.028,1.028,0,0,1,.081,1.364l-2.546,3.752c.165.285.3.591.44.89l4.9-2.8,0,0,9.778-16.672A.682.682,0,0,0,1017.94,573.4Z" transform="translate(-950.372 -558.456)" fill="#404040"/>
      <path id="Path_62027" data-name="Path 62027" d="M947.521,641.581a.69.69,0,0,1,.74-.415L984.817,653.8l1.177,7.569-11.626-5.556-26.661-13.428A.671.671,0,0,1,947.521,641.581Z" transform="translate(-947.46 -562.401)" fill="#404040"/>
      <path id="Path_62028" data-name="Path 62028" d="M1034.541,641.581a.69.69,0,0,0-.74-.415L997.245,653.8l-1.177,7.569,11.626-5.556,26.661-13.428A.67.67,0,0,0,1034.541,641.581Z" transform="translate(-950.283 -562.401)" fill="#404040"/>
      <path id="Path_62029" data-name="Path 62029" d="M1028.29,599.386l-18.7-4.872L1004.138,596c.113.313.235.622.322.947l4.451.852a1.029,1.029,0,0,1,.908,1.021v2.463a1.029,1.029,0,0,1-.908,1.022l-4.451.851c-.087.323-.208.63-.32.941l5.446,1.485v.007l18.7-4.875a.676.676,0,0,0,0-1.33Z" transform="translate(-950.751 -559.693)" fill="#404040"/>
      <path id="Path_62030" data-name="Path 62030" d="M1018.02,625.252l-9.78-16.669-4.9-2.8c-.142.3-.277.609-.443.9l2.546,3.752a1.029,1.029,0,0,1-.081,1.365l-1.742,1.742a1.028,1.028,0,0,1-1.364.08l-3.752-2.546c-.286.165-.591.3-.89.44l2.8,4.9,0,0,16.671,9.778a.676.676,0,0,0,.941-.94Z" transform="translate(-950.372 -560.347)" fill="#404040"/>
      <path id="Path_62031" data-name="Path 62031" d="M994.983,612.635l-.852,4.451a1.029,1.029,0,0,1-1.021.908h-2.463a1.029,1.029,0,0,1-1.022-.908l-.852-4.451c-.322-.087-.629-.208-.94-.321l-1.486,5.447h-.006l4.873,41.376a.676.676,0,0,0,1.331,0l4.872-41.376-1.486-5.449C995.617,612.425,995.307,612.547,994.983,612.635Z" transform="translate(-949.718 -560.726)" fill="#404040"/>
      <path id="Path_62032" data-name="Path 62032" d="M984.672,611.067l-3.752,2.546a1.029,1.029,0,0,1-1.364-.08l-1.742-1.742a1.028,1.028,0,0,1-.08-1.365l2.546-3.752c-.165-.285-.3-.59-.44-.89l-4.9,2.8-.006,0-9.778,16.671a.676.676,0,0,0,.941.94l16.669-9.78,2.8-4.9C985.266,611.368,984.96,611.233,984.672,611.067Z" transform="translate(-948.481 -560.347)" fill="#404040"/>
      <path id="Path_62033" data-name="Path 62033" d="M978.455,603.157,974,602.306a1.029,1.029,0,0,1-.908-1.022v-2.463A1.029,1.029,0,0,1,974,597.8l4.451-.852c.087-.323.208-.629.32-.941l-5.446-1.485v-.007l-18.7,4.875a.676.676,0,0,0,0,1.33l18.7,4.872,5.448-1.485C978.664,603.791,978.543,603.482,978.455,603.157Z" transform="translate(-947.844 -559.693)" fill="#404040"/>
      <path id="Path_62034" data-name="Path 62034" d="M979.838,593.743c.142-.3.276-.609.443-.9l-2.546-3.752a1.027,1.027,0,0,1,.08-1.364l1.742-1.743a1.029,1.029,0,0,1,1.364-.08l3.752,2.546c.286-.165.591-.3.89-.44l-2.8-4.9,0,0-16.671-9.778a.675.675,0,0,0-.94.94l9.779,16.67Z" transform="translate(-948.481 -558.456)" fill="#404040"/>
      <path id="Path_62035" data-name="Path 62035" d="M988.772,586.63l.852-4.451a1.029,1.029,0,0,1,1.022-.908h2.463a1.029,1.029,0,0,1,1.021.908l.852,4.451c.322.087.629.208.941.32l1.485-5.447h.007l-4.875-18.7a.676.676,0,0,0-1.33,0l-4.872,18.7,1.485,5.449C988.139,586.839,988.448,586.716,988.772,586.63Z" transform="translate(-949.718 -557.819)" fill="#404040"/>
    </g>
  </g>
</svg>
